<?xml version="1.0" encoding="UTF-8"?>
<svg id="Ebene_1" data-name="Ebene 1" xmlns="http://www.w3.org/2000/svg" viewBox="0 0 19.38 19.33">
  <defs>
    <style>
      .cls-1 {
        fill: none;
        stroke: #fff;
        stroke-miterlimit: 10;
      }

      .cls-2 {
        fill: #fff;
        stroke-width: 0px;
      }
    </style>
  </defs>
  <circle class="cls-1" cx="9.77" cy="9.65" r="8.98"/>
  <g>
    <path class="cls-2" d="M6.39,9.85l-.37,1.12h-.47l1.21-3.55h.55l1.21,3.55h-.49l-.38-1.12h-1.26ZM7.56,9.49l-.35-1.02c-.08-.23-.13-.44-.18-.65h-.01c-.05.21-.11.43-.18.64l-.35,1.03h1.07Z"/>
    <path class="cls-2" d="M11.17,8.42c-.01.18-.02.39-.02.7v1.48c0,.59-.12.94-.36,1.16-.25.23-.61.31-.93.31s-.64-.07-.85-.21l.12-.35c.17.11.43.2.75.2.47,0,.82-.25.82-.89v-.29h-.01c-.14.24-.42.43-.81.43-.63,0-1.09-.54-1.09-1.24,0-.87.56-1.36,1.15-1.36.44,0,.69.23.8.44h.01l.02-.38h.41ZM10.69,9.43c0-.08,0-.15-.03-.21-.08-.27-.31-.49-.65-.49-.44,0-.76.37-.76.96,0,.5.25.92.75.92.29,0,.54-.18.64-.47.03-.08.04-.17.04-.25v-.46Z"/>
    <path class="cls-2" d="M12.17,9.78c.01.63.41.89.87.89.33,0,.53-.06.71-.13l.08.33c-.16.07-.44.16-.85.16-.79,0-1.26-.52-1.26-1.29s.45-1.38,1.2-1.38c.83,0,1.05.73,1.05,1.2,0,.1-.01.17-.02.22h-1.79ZM13.53,9.45c0-.3-.12-.75-.64-.75-.47,0-.67.43-.71.75h1.35Z"/>
  </g>
</svg>