<?xml version="1.0" encoding="UTF-8"?>
<svg id="Ebene_1" data-name="Ebene 1" xmlns="http://www.w3.org/2000/svg" viewBox="0 0 18.71 16.74">
  <defs>
    <style>
      .cls-1 {
        fill: none;
        stroke: #454444;
        stroke-miterlimit: 10;
      }
    </style>
  </defs>
  <line class="cls-1" y1="16.03" x2="18.62" y2="16.03"/>
  <line class="cls-1" x1="3.49" y1="8.67" x2="3.49" y2="15.65"/>
  <polyline class="cls-1" points="1.8 13.8 3.56 12.85 5.01 13.8"/>
  <polyline class="cls-1" points="2.02 11.94 3.56 11.1 5.01 11.94"/>
  <polyline class="cls-1" points="2.02 10.15 3.51 8.29 5.01 10.15"/>
  <line class="cls-1" x1="15.9" y1="15.65" x2="15.9" y2="4.79"/>
  <polyline class="cls-1" points="14.38 7.13 15.99 4.3 17.43 6.97"/>
  <polyline class="cls-1" points="14.38 9.01 15.91 7.82 17.43 9.01"/>
  <polyline class="cls-1" points="14.38 11.31 15.91 9.99 17.56 11.1"/>
  <polyline class="cls-1" points="14.38 12.85 15.99 11.75 17.43 12.85"/>
  <line class="cls-1" x1="9.58" y1="15.69" x2="9.58" y2="4.06"/>
  <line class="cls-1" x1="4.87" y1="15.97" x2="10.61" y2=".4"/>
  <line class="cls-1" x1="8.37" y1=".4" x2="14.23" y2="15.78"/>
</svg>